<svg width="42" height="42" viewBox="0 0 42 42" fill="none" xmlns="http://www.w3.org/2000/svg">
<path d="M12.9532 13.8167C14.3273 13.8167 15.6452 13.2708 16.6169 12.2991C17.5886 11.3274 18.1344 10.0096 18.1344 8.63541C18.1344 7.26126 17.5886 5.94339 16.6169 4.97172C15.6452 4.00004 14.3273 3.45416 12.9532 3.45416C11.579 3.45416 10.2612 4.00004 9.28949 4.97172C8.31781 5.94339 7.77193 7.26126 7.77193 8.63541C7.77193 10.0096 8.31781 11.3274 9.28949 12.2991C10.2612 13.2708 11.579 13.8167 12.9532 13.8167ZM3.45422 18.5972C3.45422 16.9081 4.82035 15.5437 6.50771 15.5437H14.7407C14.1349 16.5941 13.8163 17.7854 13.8167 18.9979C13.8167 19.978 14.0252 20.9469 14.4283 21.8402C14.8315 22.7335 15.4202 23.5308 16.1552 24.1792H14.2796C13.3062 24.1792 12.356 24.4762 11.5558 25.0304C10.7556 25.5846 10.1435 26.3698 9.80126 27.281C7.21408 26.6489 5.60962 25.2379 4.66491 23.6662C3.45422 21.6507 3.45422 19.5782 3.45422 19.2173V18.5972ZM27.6334 18.9979C27.6339 17.7854 27.3152 16.5941 26.7094 15.5437H34.9424C36.6315 15.5437 37.9959 16.9099 37.9959 18.5972V19.219C37.9959 19.5765 37.9959 21.6507 36.7869 23.6662C35.8405 25.2379 34.236 26.6489 31.6489 27.281C31.3066 26.3698 30.6945 25.5846 29.8943 25.0304C29.0941 24.4762 28.1439 24.1792 27.1705 24.1792H25.2949C26.0299 23.5308 26.6186 22.7335 27.0218 21.8402C27.425 20.9469 27.6334 19.978 27.6334 18.9979ZM33.6782 8.63541C33.6782 10.0096 33.1323 11.3274 32.1606 12.2991C31.189 13.2708 29.8711 13.8167 28.4969 13.8167C27.1228 13.8167 25.8049 13.2708 24.8332 12.2991C23.8616 11.3274 23.3157 10.0096 23.3157 8.63541C23.3157 7.26126 23.8616 5.94339 24.8332 4.97172C25.8049 4.00004 27.1228 3.45416 28.4969 3.45416C29.8711 3.45416 31.189 4.00004 32.1606 4.97172C33.1323 5.94339 33.6782 7.26126 33.6782 8.63541ZM11.2261 28.9597C11.2261 27.2706 12.5922 25.9062 14.2796 25.9062H27.1705C28.8579 25.9062 30.224 27.2724 30.224 28.9597V29.5815C30.224 29.939 30.224 32.0132 29.0151 34.0287C27.7318 36.1599 25.2379 37.9958 20.7251 37.9958C16.2122 37.9958 13.7166 36.1599 12.4351 34.0287C11.2261 32.0132 11.2261 29.9407 11.2261 29.5798V28.9597ZM20.7251 24.1792C21.4055 24.1792 22.0792 24.0451 22.7078 23.7848C23.3365 23.5244 23.9076 23.1427 24.3888 22.6616C24.8699 22.1805 25.2515 21.6093 25.5119 20.9807C25.7723 20.3521 25.9063 19.6783 25.9063 18.9979C25.9063 18.3175 25.7723 17.6438 25.5119 17.0151C25.2515 16.3865 24.8699 15.8153 24.3888 15.3342C23.9076 14.8531 23.3365 14.4714 22.7078 14.2111C22.0792 13.9507 21.4055 13.8167 20.7251 13.8167C19.3509 13.8167 18.033 14.3625 17.0614 15.3342C16.0897 16.3059 15.5438 17.6238 15.5438 18.9979C15.5438 20.3721 16.0897 21.6899 17.0614 22.6616C18.033 23.6333 19.3509 24.1792 20.7251 24.1792Z" fill="black"/>
</svg>
