<?xml version="1.0" encoding="UTF-8"?>
<svg id="Calque_1" data-name="Calque 1" xmlns="http://www.w3.org/2000/svg" viewBox="0 0 1920 1080">
  <defs>
    <style>
      .cls-1 {
        fill: none;
        stroke: #fff;
        stroke-miterlimit: 10;
        stroke-width: 31px;
      }

      .cls-2 {
        fill: #fff;
        stroke-width: 0px;
      }
    </style>
  </defs>
  <path class="cls-2" d="M418.17,513.46c7.96,0,14.34,4.81,19.15,14.43,4.8,9.62,7.21,20.07,7.21,31.34,0,5.97-.83,11.11-2.49,15.42-4.98,12.93-13.1,24.71-24.38,35.32-11.28,10.62-24.87,21.39-40.79,32.33-15.59,10.28-33.91,19.65-54.97,28.11-21.06,8.46-40.54,12.69-58.45,12.69-26.86,0-44.77-10.61-53.72-31.84-5.31-11.94-7.96-27.03-7.96-45.27,0-22.88,3.73-46.51,11.19-70.89,7.46-24.38,17.66-53.3,30.59-86.81,12.93-32.83,28.35-64.09,46.26-93.77,17.91-29.68,37.63-44.52,59.2-44.52,5.63,0,10.77,1.17,15.42,3.48,3.65-25.2,12.1-43.78,25.37-55.71,8.28-6.96,15.42-10.45,21.39-10.45,6.96,0,12.27,4.15,15.92,12.44,2.31,5.97,3.48,13.6,3.48,22.88,0,4.65-.33,10.94-.99,18.9l-.5,14.92c-.67,24.21-2.16,48.42-4.48,72.63-1.99,21.89-6.8,42.78-14.42,62.68-7.63,19.9-19.73,30.68-36.31,32.33-8.29,1-15.01-3.31-20.15-12.93-5.15-9.61-10.53-23.71-16.17-42.28-3.65-11.94-6.72-20.97-9.2-27.11-2.49-6.13-5.23-10.69-8.21-13.68-18.9,33.5-32.83,70.14-41.79,109.94l-2.49,9.95c-2.66,11.94-4.73,21.81-6.22,29.6-1.49,7.8-2.24,15.51-2.24,23.13,0,16.91,4.31,28.53,12.93,34.82,5.97,4.97,14.42,7.46,25.37,7.46,7.29,0,15.25-1.16,23.88-3.48,8.62-1.99,17.74-5.14,27.36-9.45,2.99-1.32,7.46-3.65,13.43-6.96,2.65-.33,3.98-1.32,3.98-2.99,0-1.32-.83-2.65-2.49-3.98.66-2.99,1.32-7.13,1.99-12.44.66-4.97,1.49-9.12,2.49-12.44.99-3.31,2.65-6.79,4.97-10.45,8.62-12.6,17.74-21.06,27.36-25.37,2.99-1.32,6.13-1.99,9.45-1.99Z"/>
  <path class="cls-2" d="M827.83,359.98c40.46,0,70.64,9.95,90.54,29.85,14.92,14.6,22.39,33.33,22.39,56.21,0,11.94-2.66,26.2-7.96,42.78-10.94,31.18-29.19,59.12-54.72,83.82-25.54,24.71-54.72,43.53-87.55,56.46-1.33,33.83-2.33,63.43-2.99,88.8-.67,25.37-1.17,46.51-1.49,63.43-.34,40.45-1.33,81.08-2.99,121.87-.34,6.97-5.31,13.1-14.92,18.41-9.62,5.3-19.4,7.96-29.35,7.96-11.61,0-17.41-4.32-17.41-12.94l.5-39.79c.33-12.93.91-44.11,1.74-93.52.82-49.42,2.24-95.51,4.23-138.29-8.95,1-17.74,1.49-26.36,1.49-6.3,0-11.02-.99-14.18-2.99-3.15-1.99-4.73-4.64-4.73-7.96,0-5.97,4.07-12.27,12.19-18.9,8.13-6.63,16.34-9.95,24.62-9.95,4.64,0,7.96-.16,9.95-.5,3.65-71.3,9.28-139.78,16.91-205.45-2.32-1.32-3.48-3.48-3.48-6.47,0-3.98,2.15-8.62,6.47-13.93,0-1.99.33-5.3.99-9.95.99-6.96,6.3-13.01,15.92-18.16,9.62-5.14,18.9-7.71,27.86-7.71,5.63,0,10.03,1.17,13.18,3.48,3.15,2.32,4.39,5.81,3.73,10.45v1.99c3.64-.33,9.28-.5,16.91-.5ZM884.04,458.48c0-15.25-4.31-27.69-12.93-37.31-12.93-15.25-34.66-22.55-65.17-21.89-5.97,52.4-10.62,115.58-13.93,189.53,18.9-9.95,35.82-23.13,50.74-39.55,14.93-16.42,26.2-34.57,33.83-54.47,4.97-12.6,7.46-24.7,7.46-36.31Z"/>
  <path class="cls-2" d="M1181.01,496.28c7.96,0,14.34,4.81,19.15,14.43,4.8,9.62,7.21,20.07,7.21,31.34,0,5.97-.83,11.11-2.49,15.42-4.98,12.93-13.1,24.71-24.38,35.32-11.28,10.62-24.87,21.39-40.79,32.33-15.59,10.28-33.91,19.65-54.97,28.11-21.06,8.46-40.54,12.69-58.45,12.69-26.86,0-44.77-10.61-53.72-31.84-5.31-11.94-7.96-27.03-7.96-45.27,0-22.88,3.73-46.51,11.19-70.89,7.46-24.38,17.66-53.3,30.59-86.81,12.93-32.83,28.35-64.09,46.26-93.77,17.91-29.68,37.63-44.52,59.2-44.52,5.63,0,10.77,1.17,15.42,3.48,3.65-25.2,12.1-43.78,25.37-55.71,8.28-6.96,15.42-10.45,21.39-10.45,6.96,0,12.27,4.15,15.92,12.44,2.31,5.97,3.48,13.6,3.48,22.88,0,4.65-.33,10.94-.99,18.9l-.5,14.92c-.67,24.21-2.16,48.42-4.48,72.63-1.99,21.89-6.8,42.78-14.42,62.68-7.63,19.9-19.73,30.68-36.31,32.33-8.29,1-15.01-3.31-20.15-12.93-5.15-9.61-10.53-23.71-16.17-42.28-3.65-11.94-6.72-20.97-9.2-27.11-2.49-6.13-5.23-10.69-8.21-13.68-18.9,33.5-32.83,70.14-41.79,109.94l-2.49,9.95c-2.66,11.94-4.73,21.81-6.22,29.6-1.49,7.8-2.24,15.51-2.24,23.13,0,16.91,4.31,28.53,12.93,34.82,5.97,4.97,14.42,7.46,25.37,7.46,7.29,0,15.25-1.16,23.88-3.48,8.62-1.99,17.74-5.14,27.36-9.45,2.99-1.32,7.46-3.65,13.43-6.96,2.65-.33,3.98-1.32,3.98-2.99,0-1.32-.83-2.65-2.49-3.98.66-2.99,1.32-7.13,1.99-12.44.66-4.97,1.49-9.12,2.49-12.44.99-3.31,2.65-6.79,4.97-10.45,8.62-12.6,17.74-21.06,27.36-25.37,2.99-1.32,6.13-1.99,9.45-1.99Z"/>
  <path class="cls-2" d="M1390.18,352.77c9.12-5.14,18.32-7.71,27.61-7.71,5.3,0,9.61,1.08,12.93,3.23,3.31,2.16,4.8,5.56,4.48,10.2-.67,12.61-1,22.72-1,30.34-1.66,43.12-4.56,79.76-8.7,109.94-4.15,30.18-13.35,58.54-27.61,85.06-14.26,26.54-35.49,43.95-63.67,52.23-9.62,2.66-18.74,3.98-27.36,3.98-21.23,0-39.88-6.3-55.96-18.9-16.09-12.6-25.29-29.68-27.61-51.24-.67-8.62-.99-15.09-.99-19.4,0-22.88,3.48-46.26,10.45-70.14,6.96-23.88,17.08-52.73,30.34-86.56,3.98-8.95,8.46-20.4,13.43-34.32,1.99-5.63,7.04-10.36,15.17-14.18,8.12-3.81,16.17-5.72,24.13-5.72,5.3,0,9.61,1.08,12.93,3.23,3.31,2.16,4.98,5.22,4.98,9.2,0,1.33-.34,3.32-1,5.97-6.64,19.24-11.78,33.66-15.42,43.28-9.62,26.86-17.08,49.33-22.39,67.4-5.31,18.08-8.96,36.56-10.94,55.47-.67,7.96-.99,14.26-.99,18.9,0,19.57,4.8,33.66,14.42,42.28,2.99,2.99,6.96,5.72,11.94,8.21,4.98,2.49,9.62,3.9,13.93,4.23l3.98,1c.33,0,1-.5,1.99-1.49,8.28-5.3,15-14.34,20.15-27.11,5.14-12.76,8.53-24.13,10.2-34.08,1.66-9.95,3.98-25.7,6.96-47.26,2.31-17.57,4.23-36.81,5.72-57.7,1.49-20.89,2.74-41.12,3.73-60.69.33-6.63,5.05-12.51,14.18-17.66Z"/>
  <path class="cls-2" d="M1570.17,417.94c-.38-.18-.77-.4-1.13-.62-50.34-32.25-67.7-3.26-30.18,34.12,10.58,9.88,46.52,33.79,57.57,42.89,102.76,81.75,148.92,238.49,19.68,268.6-15.29,3.56-31.12,4.21-46.83,4-250.94-3.44-701.04-4.83-976.97-12.03-2.16-.06-7.02-6.28-11.02-12.49-3.14-4.88.15-9.56,2.72-14.76.1-.21-4.54.81-3.96.27.95-.89-4.57-24.53,19.63-24.53,252.93-2.86,741.23,22.18,973.94-7.36,68.01-7.4,31.63-115.56-35.5-161.58-.25-.17-.48-.35-.71-.54-41.74-35.49-128.94-84.33-66.35-146.12,56.19-56.72,152.25-34.43,198.77,23.35,2.9,3.6,3.36,8.66.89,12.57-8.33,13.24-34.14,22.87-47.69,22.5-.4-.01-.79-.04-1.19-.09-22.59-2.57-25.15-15.69-51.67-28.17Z"/>
  <path class="cls-2" d="M622.51,815.01s-90.71-38.68-88.99-61.49c2.12-28.19,56.92-84.52,56.92-84.52,16.98-20.37,57.76-17.1,19.13,41.06l-22.85,31.17,48.3,41.83c11.11,9.26,36.88,48.01-12.51,31.95Z"/>
  <path class="cls-2" d="M823.62,899.5s-57.84,79.86-79.7,73.14c-27.02-8.32-69.79-74.25-69.79-74.25-16.1-21.08-3.86-60.12,44.28-9.55l25.33,29.19,51.51-37.82c11.5-8.78,54.99-25.31,28.38,19.28Z"/>
  <path class="cls-2" d="M1877.46,365.31c4.13,2.09,8.54,6.11,13.22,12.06,2.88,3.87,4.32,7.15,4.32,9.83,0,6.55-5.04,10.43-15.11,11.61l-18.89,1.79c-17.63,2.09-26.99,3.13-28.07,3.13-6.12,47.65-10.98,89.05-14.57,124.18-3.6,35.14-5.94,69.84-7.02,104.08-.36,4.17-2.43,7.3-6.21,9.38-3.78,2.09-8.73,3.13-14.84,3.13-10.8,0-21.51-2.46-32.12-7.37-10.62-4.91-15.75-10.5-15.38-16.75,1.08-31.56,3.24-63.8,6.48-96.71,3.24-32.9,7.56-71.1,12.95-114.58l-34.01,3.57c-5.04.3-8.91.08-11.61-.67-2.7-.74-5.31-2.46-7.83-5.14-2.52-2.68-5.04-5.65-7.56-8.93-2.88-3.27-4.32-6.55-4.32-9.83,0-2.68,1.26-5.06,3.78-7.15,2.51-2.08,6.29-3.42,11.34-4.02,7.91-.89,17.09-1.93,27.53-3.13l27.53-3.13,9.72-77.28c1.08-8.33,8.45-12.51,22.13-12.51,10.79,0,21.32,2.46,31.58,7.37,10.26,4.91,15.02,10.5,14.3,16.75l-7.02,59.86c10.07-.59,17.45-1.19,22.13-1.79,7.56-.59,13.4.15,17.54,2.23Z"/>
  <path class="cls-2" d="M660.81,370.47c12.88,11.53,22.64,25.42,29.27,41.67,6.63,16.25,9.94,33.11,9.94,50.57,0,20.62-4.24,41.76-12.7,63.42-8.47,21.67-20.07,41.58-34.79,59.75-14.73,18.17-31.12,32.49-49.15,42.98-16.94,9.79-33.5,14.67-49.7,14.67s-30.37-4.72-42.52-14.15c-12.15-9.43-20.99-23.06-26.51-40.88-6.26-18.16-9.39-38.6-9.39-61.32,0-13.63,1.1-26.9,3.31-39.83-2.58.7-6.45,1.05-11.6,1.05-12.52,0-18.78-4.01-18.78-12.05,0-2.79.36-5.06,1.1-6.81,12.51-33.19,31.38-62.11,56.6-86.74,25.21-24.63,54.21-36.95,86.98-36.95,4.78,0,11.96.7,21.54,2.1,18.03,3.5,33.5,11.01,46.39,22.54ZM634.85,473.71c0-15.72-2.86-30.14-8.56-43.24-5.71-13.1-14.63-23.85-26.78-32.23-8.1-5.59-15.83-8.39-23.19-8.39-2.95,0-6.63.7-11.05,2.1,3.31,1.4,4.97,3.85,4.97,7.34,0,2.1-.74,4.54-2.21,7.34-8.47,15.38-15.1,32.06-19.88,50.05-4.79,18-7.18,36.08-7.18,54.24,0,20.96,3.31,40.88,9.94,59.75,4.42,10.48,9.02,18.7,13.81,24.63,2.21,2.45,4.42,4.19,6.63,5.24,10.67-6.99,20.34-16.77,28.99-29.35,8.65-12.58,15.92-25.68,21.81-39.31,8.46-18.87,12.7-38.26,12.7-58.17Z"/>
  <ellipse class="cls-1" cx="207.28" cy="311.9" rx="115.07" ry="22.02" transform="translate(-165.12 272.36) rotate(-50.33)"/>
  <path class="cls-1" d="M134.03,400.31l-107.85-83.96c-.58-.45.25-1.7.97-1.45h0s.09.02.14.03l112.09.56c1.73.09-49.34-92.24-57.3-109.98-.43-.95.8-2.38,1.78-2.07,18.47,5.82,116.01,43.28,115.62,41.75l-27.25-106.78s-.03-.09-.05-.13h0c-.39-.75.77-1.9,1.4-1.39l106.96,86.43"/>
</svg>