<svg width="29" height="24" viewBox="0 0 29 24" fill="none" xmlns="http://www.w3.org/2000/svg">
<path fill-rule="evenodd" clip-rule="evenodd" d="M1.99116 1.88239C0.317261 3.55487 0.317261 6.24853 0.317261 11.6344C0.317261 17.0203 0.317261 19.714 1.99116 21.3865C3.66363 23.0604 6.35729 23.0604 11.7432 23.0604H17.4562C22.8421 23.0604 25.5357 23.0604 27.2082 21.3865C28.8821 19.714 28.8821 17.0203 28.8821 11.6344C28.8821 6.24853 28.8821 3.55487 27.2082 1.88239C25.5357 0.208496 22.8421 0.208496 17.4562 0.208496H11.7432C6.35729 0.208496 3.66363 0.208496 1.99116 1.88239ZM23.9918 5.23591C24.1735 5.45412 24.2612 5.73558 24.2355 6.0184C24.2098 6.30122 24.0728 6.56226 23.8547 6.74413L20.7183 9.35781C19.4514 10.4147 18.4259 11.2688 17.519 11.8515C16.5764 12.4585 15.658 12.8413 14.5997 12.8413C13.5413 12.8413 12.623 12.4571 11.6789 11.8515C10.7734 11.2688 9.74794 10.4133 8.48109 9.35924L5.34467 6.74556C5.1263 6.56374 4.98909 6.30261 4.96325 6.01963C4.9374 5.73665 5.02502 5.45499 5.20685 5.23662C5.38867 5.01825 5.64979 4.88104 5.93277 4.8552C6.21575 4.82935 6.49741 4.91697 6.71578 5.09879L9.80079 7.6682C11.1333 8.77794 12.0574 9.54634 12.8401 10.0491C13.5956 10.5347 14.1084 10.6989 14.6011 10.6989C15.0938 10.6989 15.6066 10.5361 16.3621 10.0491C17.1434 9.54634 18.0689 8.77794 19.4014 7.6682L22.485 5.09737C22.7034 4.91579 22.985 4.82838 23.2678 4.85436C23.5506 4.88034 23.8101 5.01758 23.9918 5.23591Z" fill="#FFC700"/>
</svg>
