<svg width="42" height="42" viewBox="0 0 42 42" fill="none" xmlns="http://www.w3.org/2000/svg">
<path d="M12.0896 24.1791C9.22268 24.1791 6.90839 26.4934 6.90839 29.3604C6.90839 31.6229 4.90497 32.8146 3.45422 32.8146C5.04314 34.9216 7.75466 36.2687 10.3626 36.2687C14.1794 36.2687 17.2709 33.1772 17.2709 29.3604C17.2709 26.4934 14.9566 24.1791 12.0896 24.1791ZM35.768 7.99637L33.4537 5.68208C33.2939 5.52197 33.1041 5.39495 32.8952 5.30828C32.6862 5.22161 32.4623 5.177 32.2361 5.177C32.0099 5.177 31.7859 5.22161 31.577 5.30828C31.368 5.39495 31.1783 5.52197 31.0185 5.68208L15.5438 21.1567L20.2933 25.9062L35.768 10.4316C35.9281 10.2718 36.0551 10.082 36.1418 9.87306C36.2284 9.66413 36.273 9.44016 36.273 9.21396C36.273 8.98777 36.2284 8.7638 36.1418 8.55487C36.0551 8.34593 35.9281 8.15615 35.768 7.99637Z" fill="black"/>
</svg>
