<svg width="42" height="42" viewBox="0 0 42 42" fill="none" xmlns="http://www.w3.org/2000/svg">
<path d="M12.0895 24.1794C9.22256 24.1794 6.90827 26.4937 6.90827 29.3606C6.90827 31.6231 4.90485 32.8148 3.4541 32.8148C5.04302 34.9218 7.75454 36.269 10.3624 36.269C14.1793 36.269 17.2708 33.1775 17.2708 29.3606C17.2708 26.4937 14.9565 24.1794 12.0895 24.1794ZM35.7678 7.99661L33.4535 5.68232C33.2938 5.52221 33.104 5.39519 32.895 5.30852C32.6861 5.22186 32.4621 5.17725 32.2359 5.17725C32.0098 5.17725 31.7858 5.22186 31.5768 5.30852C31.3679 5.39519 31.1781 5.52221 31.0184 5.68232L15.5437 21.157L20.2932 25.9065L35.7678 10.4318C35.9279 10.272 36.055 10.0822 36.1416 9.8733C36.2283 9.66437 36.2729 9.4404 36.2729 9.21421C36.2729 8.98801 36.2283 8.76404 36.1416 8.55511C36.055 8.34618 35.9279 8.15639 35.7678 7.99661Z" fill="white"/>
</svg>
