<svg width="30" height="29" viewBox="0 0 30 29" fill="none" xmlns="http://www.w3.org/2000/svg">
<path d="M29.125 21.903C28.868 23.856 27.9089 25.6486 26.4269 26.9461C24.9448 28.2436 23.0411 28.9572 21.0713 28.9537C9.62776 28.9537 0.317274 19.6432 0.317274 8.19963C0.313743 6.22985 1.02736 4.32615 2.32484 2.84407C3.62232 1.36199 5.41494 0.402895 7.36788 0.14591C7.86173 0.085609 8.36184 0.186642 8.79355 0.433927C9.22526 0.681212 9.56541 1.06149 9.76324 1.51798L12.8072 8.31348V8.33078C12.9586 8.68022 13.0212 9.06172 12.9892 9.44123C12.9573 9.82074 12.8319 10.1864 12.6241 10.5056C12.5982 10.5445 12.5708 10.5806 12.542 10.6166L9.54129 14.1736C10.6208 16.3672 12.9153 18.6415 15.1377 19.7239L18.6457 16.739C18.6801 16.7101 18.7162 16.6831 18.7538 16.6583C19.0727 16.4456 19.4397 16.3158 19.8214 16.2805C20.2032 16.2453 20.5877 16.3058 20.9401 16.4566L20.9589 16.4652L27.7486 19.5077C28.2059 19.7048 28.5871 20.0447 28.8352 20.4764C29.0833 20.9082 29.185 21.4087 29.125 21.903Z" fill="#FFC700"/>
</svg>
