<svg width="42" height="42" viewBox="0 0 42 42" fill="none" xmlns="http://www.w3.org/2000/svg">
<path d="M20.725 3.88593C11.4402 3.88593 3.88599 11.4402 3.88599 20.725C3.88599 30.0098 11.4402 37.5641 20.725 37.5641C30.0099 37.5641 37.5641 30.0098 37.5641 20.725C37.5641 11.4402 30.0099 3.88593 20.725 3.88593ZM20.725 6.47655C28.6096 6.47655 34.9735 12.8404 34.9735 20.725C34.9735 28.6096 28.6096 34.9734 20.725 34.9734C12.8405 34.9734 6.47661 28.6096 6.47661 20.725C6.47661 12.8404 12.8405 6.47655 20.725 6.47655ZM19.4297 12.9531V19.4297H12.9532V22.0203H19.4297V28.4969H22.0204V22.0203H28.4969V19.4297H22.0204V12.9531H19.4297Z" fill="black"/>
</svg>
