<svg width="42" height="42" viewBox="0 0 42 42" fill="none" xmlns="http://www.w3.org/2000/svg">
<path d="M20.7248 3.88574C11.44 3.88574 3.88574 11.44 3.88574 20.7248C3.88574 30.0096 11.44 37.5639 20.7248 37.5639C30.0096 37.5639 37.5639 30.0096 37.5639 20.7248C37.5639 11.44 30.0096 3.88574 20.7248 3.88574ZM20.7248 6.47637C28.6094 6.47637 34.9732 12.8402 34.9732 20.7248C34.9732 28.6094 28.6094 34.9732 20.7248 34.9732C12.8402 34.9732 6.47637 28.6094 6.47637 20.7248C6.47637 12.8402 12.8402 6.47637 20.7248 6.47637ZM19.4295 12.9529V19.4295H12.9529V22.0201H19.4295V28.4967H22.0201V22.0201H28.4967V19.4295H22.0201V12.9529H19.4295Z" fill="white"/>
</svg>
