<svg width="42" height="42" viewBox="0 0 42 42" fill="none" xmlns="http://www.w3.org/2000/svg">
<g clip-path="url(#clip0_63_210)">
<path d="M29.9394 17.2727V12.3443C29.9888 9.84764 29.0473 7.43309 27.3209 5.62895C25.5944 3.82481 23.2236 2.77801 20.7273 2.71759C18.2309 2.77801 15.8601 3.82481 14.1337 5.62895C12.4072 7.43309 11.4657 9.84764 11.5152 12.3443V17.2727H8.06061V36.8485C8.06061 37.4593 8.30325 38.0451 8.73515 38.477C9.16705 38.9089 9.75284 39.1515 10.3636 39.1515H31.0909C31.7017 39.1515 32.2875 38.9089 32.7194 38.477C33.1513 38.0451 33.3939 37.4593 33.3939 36.8485V17.2727H29.9394ZM21.8788 29.0527V32.2424H19.5758V28.9491C19.0151 28.6606 18.57 28.1892 18.3142 27.6129C18.0584 27.0366 18.0074 26.3902 18.1695 25.781C18.3316 25.1717 18.6972 24.6362 19.2056 24.2633C19.714 23.8904 20.3346 23.7025 20.9644 23.7308C21.5943 23.7592 22.1955 24.002 22.6683 24.4191C23.1411 24.8362 23.4572 25.4023 23.5639 26.0237C23.6707 26.6451 23.5618 27.2843 23.2553 27.8353C22.9487 28.3862 22.4631 28.8158 21.8788 29.0527ZM27.6364 17.2727H13.8182V12.3443C13.7685 10.4584 14.4674 8.62945 15.762 7.25718C17.0566 5.88491 18.8417 5.08082 20.7273 5.02062C22.6129 5.08082 24.398 5.88491 25.6926 7.25718C26.9872 8.62945 27.686 10.4584 27.6364 12.3443V17.2727Z" fill="black"/>
</g>
<defs>
<clipPath id="clip0_63_210">
<rect width="41.4545" height="41.4545" fill="white"/>
</clipPath>
</defs>
</svg>
