<svg width="33" height="32" viewBox="0 0 33 32" fill="none" xmlns="http://www.w3.org/2000/svg">
<path fill-rule="evenodd" clip-rule="evenodd" d="M16.6155 0C7.78716 0 0.615479 7.17168 0.615479 16C0.615479 24.8283 7.78716 32 16.6155 32C25.4438 32 32.6155 24.8283 32.6155 16C32.6155 7.17168 25.4438 0 16.6155 0ZM16.6155 1.39132C24.6919 1.39132 31.2242 7.92361 31.2242 16C31.2242 24.0764 24.6919 30.6087 16.6155 30.6087C15.1382 30.6087 13.713 30.3876 12.3696 29.981C12.968 28.9805 13.7406 27.5503 14.0476 26.3695C14.2299 25.6695 14.9796 22.8139 14.9796 22.8139C15.4668 23.744 16.8904 24.5313 18.4062 24.5313C22.9168 24.5313 26.1685 20.3831 26.1685 15.2283C26.1685 10.2863 22.1358 6.58968 16.947 6.58968C10.4916 6.58968 7.06523 10.9223 7.06523 15.6399C7.06523 17.834 8.23212 20.565 10.1006 21.4348C10.3836 21.5665 10.5356 21.5094 10.6006 21.2351C10.6506 21.0268 10.903 20.0117 11.0163 19.5394C11.0525 19.3887 11.035 19.2585 10.9131 19.1101C10.2946 18.3599 9.79891 16.9821 9.79891 15.697C9.79891 12.3979 12.2965 9.20518 16.5516 9.20518C20.2257 9.20518 22.7989 11.7098 22.7989 15.2908C22.7989 19.3365 20.7561 22.1399 18.0978 22.1399C16.6298 22.1399 15.5305 20.9255 15.8832 19.4361C16.3059 17.6586 17.1223 15.7405 17.1223 14.4565C17.1223 13.3083 16.5061 12.3505 15.2296 12.3505C13.7288 12.3505 12.5231 13.9022 12.5231 15.9823C12.5231 17.306 12.9714 18.2024 12.9714 18.2024C12.9714 18.2024 11.4889 24.4706 11.2174 25.6372C10.9453 26.803 11.0182 28.3731 11.1304 29.5421C5.77801 27.3756 2.0068 22.1352 2.0068 16C2.0068 7.92357 8.53905 1.39132 16.6155 1.39132Z" fill="#171717"/>
</svg>
