<svg width="26" height="30" viewBox="0 0 26 30" fill="none" xmlns="http://www.w3.org/2000/svg">
<path d="M20.4315 5.11198C19.3377 3.86337 18.735 2.25987 18.7355 0.599976H13.7915V20.44C13.7533 21.5136 13.3001 22.5306 12.5271 23.2767C11.7541 24.0228 10.7218 24.4398 9.64747 24.44C7.37547 24.44 5.48747 22.584 5.48747 20.28C5.48747 17.528 8.14347 15.464 10.8795 16.312V11.256C5.35947 10.52 0.527466 14.808 0.527466 20.28C0.527466 25.608 4.94347 29.4 9.63147 29.4C14.6555 29.4 18.7355 25.32 18.7355 20.28V10.216C20.7403 11.6557 23.1472 12.4282 25.6155 12.424V7.47998C25.6155 7.47998 22.6075 7.62398 20.4315 5.11198Z" fill="#171717"/>
</svg>
