<svg width="40" height="28" viewBox="0 0 40 28" fill="none" xmlns="http://www.w3.org/2000/svg">
<path d="M16.1583 19.8286L26.2418 14L16.1583 8.17145V19.8286ZM38.6178 4.61602C38.8703 5.52917 39.0452 6.75317 39.1618 8.30745C39.2978 9.86174 39.3561 11.2023 39.3561 12.368L39.4726 14C39.4726 18.2549 39.1618 21.3829 38.6178 23.384C38.132 25.1326 37.0052 26.2595 35.2566 26.7452C34.3435 26.9977 32.6726 27.1726 30.1081 27.2892C27.5823 27.4252 25.2703 27.4835 23.1332 27.4835L20.044 27.6C11.9035 27.6 6.83262 27.2892 4.83148 26.7452C3.08291 26.2595 1.95605 25.1326 1.47034 23.384C1.21776 22.4709 1.04291 21.2469 0.926336 19.6926C0.790336 18.1383 0.73205 16.7977 0.73205 15.632L0.615479 14C0.615479 9.74517 0.926336 6.61717 1.47034 4.61602C1.95605 2.86745 3.08291 1.7406 4.83148 1.25488C5.74462 1.00231 7.41548 0.827453 9.98005 0.710881C12.5058 0.574881 14.8178 0.516596 16.9549 0.516596L20.044 0.400024C28.1846 0.400024 33.2555 0.710882 35.2566 1.25488C37.0052 1.7406 38.132 2.86745 38.6178 4.61602Z" fill="#171717"/>
</svg>
