<svg width="33" height="32" viewBox="0 0 33 32" fill="none" xmlns="http://www.w3.org/2000/svg">
<path d="M9.89548 0H23.3355C28.4555 0 32.6155 4.16 32.6155 9.28V22.72C32.6155 25.1812 31.6378 27.5416 29.8974 29.282C28.1571 31.0223 25.7967 32 23.3355 32H9.89548C4.77548 32 0.615479 27.84 0.615479 22.72V9.28C0.615479 6.81879 1.59319 4.45839 3.33353 2.71805C5.07387 0.977712 7.43427 0 9.89548 0ZM9.57548 3.2C8.04783 3.2 6.58275 3.80686 5.50254 4.88707C4.42233 5.96727 3.81548 7.43235 3.81548 8.96V23.04C3.81548 26.224 6.39148 28.8 9.57548 28.8H23.6555C25.1831 28.8 26.6482 28.1931 27.7284 27.1129C28.8086 26.0327 29.4155 24.5676 29.4155 23.04V8.96C29.4155 5.776 26.8395 3.2 23.6555 3.2H9.57548ZM25.0155 5.6C25.5459 5.6 26.0546 5.81071 26.4297 6.18579C26.8048 6.56086 27.0155 7.06957 27.0155 7.6C27.0155 8.13043 26.8048 8.63914 26.4297 9.01421C26.0546 9.38929 25.5459 9.6 25.0155 9.6C24.485 9.6 23.9763 9.38929 23.6013 9.01421C23.2262 8.63914 23.0155 8.13043 23.0155 7.6C23.0155 7.06957 23.2262 6.56086 23.6013 6.18579C23.9763 5.81071 24.485 5.6 25.0155 5.6ZM16.6155 8C18.7372 8 20.772 8.84285 22.2723 10.3431C23.7726 11.8434 24.6155 13.8783 24.6155 16C24.6155 18.1217 23.7726 20.1566 22.2723 21.6569C20.772 23.1571 18.7372 24 16.6155 24C14.4937 24 12.4589 23.1571 10.9586 21.6569C9.45833 20.1566 8.61548 18.1217 8.61548 16C8.61548 13.8783 9.45833 11.8434 10.9586 10.3431C12.4589 8.84285 14.4937 8 16.6155 8ZM16.6155 11.2C15.3424 11.2 14.1215 11.7057 13.2214 12.6059C12.3212 13.5061 11.8155 14.727 11.8155 16C11.8155 17.273 12.3212 18.4939 13.2214 19.3941C14.1215 20.2943 15.3424 20.8 16.6155 20.8C17.8885 20.8 19.1094 20.2943 20.0096 19.3941C20.9098 18.4939 21.4155 17.273 21.4155 16C21.4155 14.727 20.9098 13.5061 20.0096 12.6059C19.1094 11.7057 17.8885 11.2 16.6155 11.2Z" fill="#171717"/>
</svg>
