<?xml version="1.0" encoding="UTF-8"?>
<svg id="Calque_1" data-name="Calque 1" xmlns="http://www.w3.org/2000/svg" viewBox="0 0 595.28 841.89">
  <defs>
    <style>
      .cls-1 {
        fill: #fff;
        stroke-width: 0px;
      }
    </style>
  </defs>
  <path class="cls-1" d="M320.37,202.54c.21.2.4.41.58.63l-2.35-3.04c.28.38.51.78.69,1.21l-1.51-3.58c.27.66.44,1.35.54,2.06l-.54-3.99c.19,1.45.1,2.91-.09,4.35l.54-3.99c-.64,4.56-2.28,8.96-4.06,13.17l1.51-3.58c-3.23,7.61-7.24,14.89-11.48,21.98-5.42,9.06-11.31,17.84-17.45,26.43-3.98,5.56-8.07,11.04-12.25,16.45l2.35-3.04c-11.02,14.25-22.65,28.03-34.82,41.31-10.91,11.91-22.27,23.44-34.26,34.26-5.52,4.98-11.18,9.8-17.06,14.34l3.04-2.35c-6.74,5.19-13.85,10.38-21.73,13.72l3.58-1.51c-1.97.83-4.02,1.54-6.14,1.84l3.99-.54c-.93.12-1.86.17-2.79.05l3.99.54c-.55-.08-1.08-.21-1.6-.42l3.58,1.51c-.38-.17-.74-.37-1.08-.62l3.04,2.35c-.33-.26-.62-.55-.87-.88l2.35,3.04c-.28-.38-.51-.78-.69-1.21l1.51,3.58c-.27-.66-.44-1.35-.54-2.06l.54,3.99c-.19-1.45-.1-2.91.09-4.35l-.54,3.99c.64-4.56,2.28-8.96,4.06-13.17l-1.51,3.58c3.23-7.61,7.24-14.89,11.48-21.98,5.42-9.06,11.31-17.84,17.45-26.43,3.98-5.56,8.07-11.04,12.25-16.45l-2.35,3.04c11.02-14.25,22.65-28.03,34.82-41.31,10.91-11.91,22.27-23.44,34.26-34.26,5.52-4.98,11.18-9.8,17.06-14.34l-3.04,2.35c6.74-5.19,13.85-10.38,21.73-13.72l-3.58,1.51c1.97-.83,4.02-1.54,6.14-1.84l-3.99.54c.93-.12,1.86-.17,2.79-.05l-3.99-.54c.55.08,1.08.21,1.6.42l-3.58-1.51c.38.17.74.37,1.08.62l-3.04-2.35c.1.08.2.16.29.24,2.98,2.65,6.52,4.39,10.61,4.39,3.68,0,8.07-1.63,10.61-4.39s4.57-6.61,4.39-10.61-1.42-7.97-4.39-10.61c-2.69-2.39-4.78-3.62-8.17-4.8-1.91-.66-4.02-.83-6.01-.94-3.15-.18-6.49.47-9.5,1.44-6.87,2.2-13.28,5.82-19.24,9.84-17.57,11.85-33.33,26.52-48.19,41.56-19.22,19.46-36.98,40.3-53.62,62-12.86,16.77-25.24,34.24-35.01,53.02-2.33,4.48-4.37,9.06-6.32,13.71-1.19,2.84-2.28,5.74-3.09,8.72-2.04,7.48-2.59,15.65,1.22,22.68,2.5,4.62,6.75,7.63,11.62,9.3,4.13,1.41,8.33.97,12.51.25,3.46-.6,6.72-2.13,9.91-3.53,2.75-1.21,5.39-2.67,7.95-4.24,7.95-4.86,15.35-10.67,22.53-16.59,8.29-6.84,16.2-14.13,23.87-21.64,18.52-18.14,35.78-37.61,51.86-57.94,14.49-18.32,28.52-37.27,39.95-57.69,4.28-7.65,8.18-15.6,11.11-23.87,2.42-6.83,3.65-14.05,2.22-21.22-.38-1.93-1.24-3.85-2.15-5.54-.16-.29-.33-.56-.52-.84-.86-1.25-1.79-2.62-2.93-3.67-2.89-2.68-6.61-4.39-10.61-4.39-3.68,0-8.07,1.63-10.61,4.39s-4.57,6.61-4.39,10.61,1.46,7.89,4.39,10.61Z"/>
  <path class="cls-1" d="M178.58,371.16c-3.77-3.2-7.53-6.41-11.3-9.61-8.97-7.63-17.93-15.26-26.9-22.89-10.88-9.25-21.75-18.51-32.63-27.76l-28.21-24c-4.56-3.88-9.05-7.89-13.71-11.66-.07-.05-.13-.11-.19-.16l2.35,3.04-.15-.2,1.51,3.58-.05-.24v7.98c0-.19.05-.36.15-.52l-1.51,3.58.17-.24-2.35,3.04.21-.2-3.04,2.35.24-.14-3.58,1.51.26-.06h-7.98c5.05.79,10.09.82,15.2,1,9.13.33,18.26.67,27.4,1,11.31.41,22.62.82,33.93,1.24l30.39,1.11c5.59.2,11.18.41,16.77.61.29.01.59.03.88.03,10.04-.05,17.08-9.89,14.47-19.34-.79-2.85-2.2-5.54-3.4-8.23-3.32-7.48-6.9-14.85-10.44-22.23-5.13-10.7-10.31-21.37-15.49-32.05-5.33-11.01-10.66-22.02-15.94-33.05-4-8.37-8.02-16.75-11.79-25.23-.58-1.31-1.16-2.63-1.72-3.95l1.51,3.58c-.25-.59-.55-1.19-.7-1.82l.54,3.99v-.31c-.17,1.33-.35,2.66-.53,3.99l.08-.31-1.51,3.58c.08-.21.18-.41.32-.59l-2.35,3.04c.14-.18.3-.34.48-.47l-3.04,2.35.28-.16-3.58,1.51.29-.1-3.99.54.3-.03-3.99-.54c1.29.25,2.58.9,3.8,1.37,1.6.61,3.19,1.24,4.79,1.87,4.17,1.66,8.34,3.35,12.49,5.05,10.77,4.41,21.52,8.9,32.26,13.38,11.41,4.76,22.81,9.54,34.23,14.28,8.74,3.63,17.48,7.27,26.28,10.76,2.4.95,4.8,1.92,7.24,2.75.53.18,1.05.35,1.6.48,3.91.89,8.28.74,11.77-1.51,4.47-2.88,7.44-7.54,7.44-12.97,0-.31-.48-3.72-.54-4.03-.79-4.02-1.74-8.02-2.62-12.03l-6.01-27.64-7.23-33.27c-2.13-9.8-4.26-19.6-6.39-29.4l-3.38-15.56c-.33-1.52-1.03-2.91-1.69-4.32l1.51,3.58-.07-.26.54,3.99.02-.27-.54,3.99.09-.27-1.51,3.58.15-.25-2.35,3.04c.12-.16.26-.29.42-.4l-3.04,2.35.24-.12-3.58,1.51.25-.05-3.99.54.24.03-7.57-2.05.21.12-3.04-2.35c3.73,3.29,7.46,6.59,11.2,9.88,8.89,7.84,17.77,15.69,26.66,23.53,10.78,9.51,21.55,19.03,32.33,28.54,9.32,8.22,18.63,16.45,27.95,24.67,4.52,3.99,9.02,8.01,13.56,11.97.07.06.13.12.2.17,3,2.65,6.51,4.39,10.61,4.39,3.68,0,8.07-1.63,10.61-4.39s4.57-6.61,4.39-10.61-1.42-7.98-4.39-10.61c-3.92-3.46-7.83-6.91-11.75-10.37l-27.97-24.69c-11.06-9.76-22.12-19.53-33.18-29.29-9.22-8.14-18.44-16.28-27.66-24.41l-8.4-7.42c-2.88-2.55-5.98-5.71-9.77-6.57-5.88-1.34-11.41.25-15.74,4.41-2.9,2.78-4.59,7.15-4.63,11.13-.04,3.37.72,5.14,2.1,8.1l-1.51-3.58c.34,1.03.49,2.16.72,3.21l1.86,8.54,6.16,28.35,7.44,34.24,6.44,29.64c1.05,4.82,2.05,9.66,3.14,14.47.02.07.03.13.04.2l-.54-3.99s0,.01,0,.02l.54-3.99h0c.5-1.19,1.01-2.38,1.51-3.58h0c.78-1.01,1.56-2.02,2.35-3.03h0c1.01-.78,2.02-1.56,3.04-2.34h0c1.19-.5,2.39-1,3.58-1.51-.01,0-.02,0-.03,0l3.99-.54s-.08,0-.12,0l3.99.54c-1.3-.18-2.62-.82-3.83-1.27-2.76-1.03-5.5-2.13-8.23-3.23-8.58-3.45-17.12-7-25.66-10.56-10.52-4.37-21.02-8.77-31.53-13.16s-20.07-8.38-30.13-12.51c-6.98-2.87-13.96-5.76-21.02-8.42-.54-.2-1.08-.42-1.63-.6-1.49-.5-3.3-.74-4.84-.73-4.47.03-8.52,1.96-11.7,5.01s-4.82,7.43-4.9,11.64c-.03,1.61.19,3.51.79,5.06.66,1.68,1.4,3.34,2.1,5,1.23,2.89,2.53,5.75,3.84,8.61,3.94,8.57,8.01,17.07,12.08,25.57,4.94,10.29,9.91,20.55,14.89,30.82s9.49,19.59,14.2,29.4c3.33,6.93,6.67,13.86,9.82,20.88.45,1,.89,2,1.32,3.01l-1.51-3.58c.36.85.86,1.79,1,2.71l-.54-3.99s0,.07,0,.11l.54-3.99s0,.02,0,.02l1.51-3.58s0,.01,0,.02l2.35-3.04h0c1.01-.78,2.02-1.56,3.04-2.34h0c1.19-.5,2.39-1,3.58-1.51h0c1.33-.18,2.66-.36,3.99-.53-3.91.04-7.87-.29-11.78-.43-9.58-.35-19.16-.7-28.74-1.05l-34.72-1.26c-10.05-.37-20.1-.73-30.16-1.1-4.86-.18-9.72-.42-14.59-.53-.07,0-.14,0-.2,0l3.99.54c-5.69-1.27-11.42-.1-15.61,4.08-5.07,5.06-6.31,13.16-2.64,19.38.72,1.23,1.55,2.36,2.6,3.29.51.45,1.03.88,1.55,1.32l7.32,6.23c8.82,7.5,17.63,15,26.45,22.51l33.5,28.51c9.78,8.32,19.56,16.64,29.34,24.97,4.79,4.08,9.57,8.18,14.38,12.23.07.06.13.11.2.17,3.08,2.62,6.44,4.39,10.61,4.39,3.68,0,8.07-1.63,10.61-4.39s4.57-6.61,4.39-10.61c-.17-3.79-1.39-8.05-4.39-10.61h0Z"/>
  <path class="cls-1" d="M469.09,498.36c9.11,0,16.42,5.67,21.93,17,5.5,11.34,8.26,23.65,8.26,36.93,0,7.03-.95,13.09-2.85,18.17-5.7,15.24-15.01,29.11-27.92,41.61-12.91,12.51-28.48,25.2-46.71,38.1-17.86,12.12-38.84,23.15-62.95,33.11-24.12,9.96-46.43,14.95-66.93,14.95-30.76,0-51.27-12.5-61.52-37.51-6.08-14.07-9.11-31.84-9.11-53.34,0-26.96,4.27-54.8,12.82-83.52,8.54-28.72,20.22-62.8,35.04-102.28,14.81-38.68,32.47-75.51,52.98-110.48,20.51-34.96,43.1-52.46,67.79-52.46,6.45,0,12.34,1.37,17.66,4.1,4.18-29.69,13.86-51.58,29.05-65.64,9.49-8.21,17.66-12.31,24.49-12.31,7.98,0,14.05,4.89,18.23,14.65,2.65,7.03,3.99,16.03,3.99,26.96,0,5.48-.38,12.89-1.14,22.27l-.57,17.58c-.77,28.53-2.47,57.05-5.13,85.57-2.28,25.79-7.79,50.4-16.52,73.85-8.74,23.44-22.6,36.15-41.59,38.1-9.5,1.17-17.19-3.9-23.07-15.24-5.89-11.33-12.06-27.93-18.51-49.82-4.18-14.07-7.69-24.71-10.54-31.94-2.85-7.22-5.98-12.6-9.4-16.12-21.65,39.47-37.6,82.64-47.85,129.53l-2.85,11.72c-3.05,14.07-5.41,25.7-7.12,34.87-1.71,9.19-2.56,18.27-2.56,27.25,0,19.93,4.93,33.61,14.81,41.03,6.83,5.86,16.52,8.79,29.05,8.79,8.35,0,17.47-1.36,27.35-4.1,9.87-2.34,20.31-6.05,31.33-11.14,3.42-1.56,8.54-4.3,15.38-8.21,3.03-.39,4.56-1.56,4.56-3.52,0-1.56-.95-3.12-2.85-4.69.76-3.52,1.51-8.4,2.28-14.65.76-5.86,1.71-10.74,2.85-14.65,1.14-3.9,3.03-8,5.7-12.31,9.87-14.84,20.31-24.81,31.33-29.89,3.42-1.56,7.02-2.34,10.82-2.34Z"/>
</svg>