<svg width="69" height="69" viewBox="0 0 69 69" fill="none" xmlns="http://www.w3.org/2000/svg">
<g clip-path="url(#clip0_440_36)">
<path d="M31.625 40.2491H14.375C10.5639 40.2536 6.91023 41.7696 4.21538 44.4644C1.52054 47.1593 0.00456509 50.813 0 54.624L0 68.999H8.625V54.624C8.625 53.099 9.2308 51.6365 10.3091 50.5582C11.3875 49.4799 12.85 48.8741 14.375 48.8741H31.625C33.15 48.8741 34.6125 49.4799 35.6909 50.5582C36.7692 51.6365 37.375 53.099 37.375 54.624V68.999H46V54.624C45.9954 50.813 44.4795 47.1593 41.7846 44.4644C39.0898 41.7696 35.4361 40.2536 31.625 40.2491Z" fill="#F18F01"/>
<path d="M22.9998 34.4998C26.4115 34.4998 29.7466 33.4881 32.5833 31.5927C35.4201 29.6972 37.6311 27.0031 38.9367 23.8511C40.2423 20.6991 40.5839 17.2307 39.9183 13.8845C39.2527 10.5383 37.6098 7.46468 35.1973 5.05223C32.7849 2.63977 29.7112 0.99687 26.3651 0.331275C23.0189 -0.33432 19.5505 0.00728726 16.3985 1.3129C13.2464 2.61851 10.5524 4.82949 8.65691 7.66623C6.76145 10.503 5.74976 13.8381 5.74976 17.2498C5.75432 21.8234 7.5732 26.2084 10.8072 29.4424C14.0412 32.6764 18.4262 34.4953 22.9998 34.4998ZM22.9998 8.62482C24.7056 8.62482 26.3732 9.13067 27.7916 10.0784C29.2099 11.0261 30.3154 12.3732 30.9682 13.9492C31.621 15.5252 31.7918 17.2594 31.459 18.9325C31.1262 20.6056 30.3048 22.1424 29.0986 23.3486C27.8923 24.5548 26.3555 25.3763 24.6824 25.7091C23.0093 26.0419 21.2751 25.8711 19.6991 25.2183C18.1231 24.5655 16.7761 23.46 15.8283 22.0416C14.8806 20.6232 14.3748 18.9557 14.3748 17.2498C14.3748 14.9623 15.2835 12.7685 16.901 11.151C18.5185 9.53352 20.7123 8.62482 22.9998 8.62482Z" fill="#F18F01"/>
<path d="M62.5312 21.3234C60.7311 21.4128 59.0398 22.2117 57.8274 23.5454C56.615 24.879 55.9804 26.6386 56.0625 28.439C56.1446 26.6386 55.5099 24.879 54.2976 23.5454C53.0852 22.2117 51.3938 21.4128 49.5937 21.3234C47.7936 21.4128 46.1023 22.2117 44.8899 23.5454C43.6775 24.879 43.0429 26.6386 43.125 28.439C43.125 35.891 56.0625 45.0422 56.0625 45.0422C56.0625 45.0422 69 35.891 69 28.439C69.0821 26.6386 68.4474 24.879 67.2351 23.5454C66.0227 22.2117 64.3313 21.4128 62.5312 21.3234Z" fill="#F18F01"/>
</g>
<defs>
<clipPath id="clip0_440_36">
<rect width="69" height="69" fill="white"/>
</clipPath>
</defs>
</svg>
