<svg width="42" height="42" viewBox="0 0 42 42" fill="none" xmlns="http://www.w3.org/2000/svg">
<path d="M12.9531 13.8166C14.3272 13.8166 15.6451 13.2707 16.6168 12.299C17.5884 11.3274 18.1343 10.0095 18.1343 8.63535C18.1343 7.2612 17.5884 5.94333 16.6168 4.97165C15.6451 3.99998 14.3272 3.4541 12.9531 3.4541C11.5789 3.4541 10.261 3.99998 9.28936 4.97165C8.31769 5.94333 7.77181 7.2612 7.77181 8.63535C7.77181 10.0095 8.31769 11.3274 9.28936 12.299C10.261 13.2707 11.5789 13.8166 12.9531 13.8166ZM3.4541 18.5972C3.4541 16.9081 4.82022 15.5437 6.50758 15.5437H14.7406C14.1348 16.594 13.8161 17.7853 13.8166 18.9979C13.8165 19.9779 14.025 20.9468 14.4282 21.8401C14.8314 22.7335 15.4201 23.5308 16.1551 24.1791H14.2795C13.3061 24.1791 12.3559 24.4761 11.5557 25.0303C10.7555 25.5846 10.1434 26.3697 9.80113 27.2809C7.21396 26.6488 5.6095 25.2378 4.66479 23.6662C3.4541 21.6507 3.4541 19.5782 3.4541 19.2172V18.5972ZM27.6333 18.9979C27.6337 17.7853 27.3151 16.594 26.7093 15.5437H34.9423C36.6314 15.5437 37.9958 16.9098 37.9958 18.5972V19.2189C37.9958 19.5764 37.9958 21.6507 36.7868 23.6662C35.8404 25.2378 34.2359 26.6488 31.6487 27.2809C31.3065 26.3697 30.6944 25.5846 29.8942 25.0303C29.094 24.4761 28.1438 24.1791 27.1704 24.1791H25.2948C26.0298 23.5308 26.6185 22.7335 27.0216 21.8401C27.4248 20.9468 27.6333 19.9779 27.6333 18.9979ZM33.6781 8.63535C33.6781 10.0095 33.1322 11.3274 32.1605 12.299C31.1888 13.2707 29.871 13.8166 28.4968 13.8166C27.1227 13.8166 25.8048 13.2707 24.8331 12.299C23.8614 11.3274 23.3156 10.0095 23.3156 8.63535C23.3156 7.2612 23.8614 5.94333 24.8331 4.97165C25.8048 3.99998 27.1227 3.4541 28.4968 3.4541C29.871 3.4541 31.1888 3.99998 32.1605 4.97165C33.1322 5.94333 33.6781 7.2612 33.6781 8.63535ZM11.226 28.9597C11.226 27.2706 12.5921 25.9062 14.2795 25.9062H27.1704C28.8578 25.9062 30.2239 27.2723 30.2239 28.9597V29.5814C30.2239 29.9389 30.2239 32.0132 29.0149 34.0287C27.7317 36.1599 25.2378 37.9958 20.7249 37.9958C16.2121 37.9958 13.7164 36.1599 12.4349 34.0287C11.226 32.0132 11.226 29.9407 11.226 29.5797V28.9597ZM20.7249 24.1791C21.4053 24.1791 22.0791 24.0451 22.7077 23.7847C23.3363 23.5243 23.9075 23.1427 24.3886 22.6616C24.8698 22.1804 25.2514 21.6092 25.5118 20.9806C25.7722 20.352 25.9062 19.6783 25.9062 18.9979C25.9062 18.3174 25.7722 17.6437 25.5118 17.0151C25.2514 16.3865 24.8698 15.8153 24.3886 15.3342C23.9075 14.853 23.3363 14.4714 22.7077 14.211C22.0791 13.9506 21.4053 13.8166 20.7249 13.8166C19.3508 13.8166 18.0329 14.3625 17.0612 15.3342C16.0896 16.3058 15.5437 17.6237 15.5437 18.9979C15.5437 20.372 16.0896 21.6899 17.0612 22.6616C18.0329 23.6332 19.3508 24.1791 20.7249 24.1791Z" fill="white"/>
</svg>
