<svg width="69" height="69" viewBox="0 0 69 69" fill="none" xmlns="http://www.w3.org/2000/svg">
<g clip-path="url(#clip0_440_34)">
<path d="M65.6449 3.35525C63.4632 1.27196 60.5626 0.109501 57.546 0.109501C54.5294 0.109501 51.6288 1.27196 49.4471 3.35525L21.1312 31.674C20.8006 31.6539 20.4729 31.6251 20.1394 31.6251C17.8757 31.6191 15.6334 32.0619 13.542 32.9279C11.4506 33.794 9.55171 35.0661 7.9551 36.6708C2.05848 42.5674 0.595104 60.5131 0.359354 64.0523L0.0373535 68.9628L4.94785 68.6408C8.4841 68.405 26.4299 66.9445 32.3265 61.0479C34.0311 59.3329 35.3534 57.2766 36.2067 55.0141C37.06 52.7516 37.4248 50.3342 37.2772 47.9206L65.6449 19.5501C67.7904 17.4015 68.9955 14.4892 68.9955 11.4527C68.9955 8.41623 67.7904 5.5039 65.6449 3.35525ZM26.2286 54.9471C24.2794 56.8964 16.8101 58.6501 9.4501 59.5471C10.3529 52.1871 12.1037 44.7179 14.0501 42.7686C14.8447 41.9475 15.7948 41.2928 16.845 40.8425C17.8952 40.3923 19.0246 40.1556 20.1672 40.1463C21.3098 40.1369 22.4428 40.355 23.5003 40.788C24.5577 41.2209 25.5184 41.86 26.3264 42.668C27.1344 43.4759 27.7735 44.4366 28.2064 45.4941C28.6393 46.5515 28.8575 47.6846 28.8481 48.8272C28.8387 49.9698 28.602 51.0991 28.1518 52.1493C27.7016 53.1995 27.0468 54.1496 26.2257 54.9443L26.2286 54.9471ZM59.547 13.4523L34.1234 38.8759C33.5868 38.0921 32.9857 37.3545 32.3265 36.6708C31.6515 36.0065 30.9247 35.397 30.153 34.848L55.545 9.456C56.0841 8.94141 56.8007 8.65429 57.546 8.65429C58.2913 8.65429 59.0079 8.94141 59.547 9.456C60.0761 9.98636 60.3733 10.7049 60.3733 11.4541C60.3733 12.2033 60.0761 12.9219 59.547 13.4523Z" fill="#F18F01"/>
</g>
<defs>
<clipPath id="clip0_440_34">
<rect width="69" height="69" fill="white"/>
</clipPath>
</defs>
</svg>
