<svg width="41" height="41" viewBox="0 0 41 41" fill="none" xmlns="http://www.w3.org/2000/svg">
<path d="M23.69 32.4123V32.5654L23.7996 32.7023C24.5475 33.6372 24.92 34.7567 24.92 35.875V35.8928L24.9213 35.9106C25.1041 38.4704 23.1011 40.5 20.5 40.5C17.8736 40.5 15.2728 39.9827 12.8463 38.9776C10.4198 37.9725 8.21504 36.4993 6.35786 34.6421C2.60714 30.8914 0.5 25.8043 0.5 20.5C0.5 15.1957 2.60714 10.1086 6.35786 6.35786C10.1086 2.60714 15.1957 0.5 20.5 0.5C31.5516 0.5 40.5 8.52609 40.5 18.45C40.5 21.5796 39.2568 24.5809 37.0439 26.7939C34.8309 29.0068 31.8296 30.25 28.7 30.25H25.01C24.5889 30.25 24.1991 30.3926 23.9133 30.6783C23.6276 30.9641 23.485 31.3539 23.485 31.775C23.485 31.9082 23.518 32.022 23.5489 32.1043C23.5789 32.1845 23.617 32.2596 23.6403 32.3061C23.6683 32.3621 23.6814 32.3895 23.6898 32.4118C23.6899 32.412 23.6899 32.4122 23.69 32.4123ZM21.82 35.0351V34.8796L21.7104 34.7427C20.9492 33.7911 20.59 32.8734 20.59 31.775C20.59 29.1811 22.6211 27.15 25.215 27.15H28.7C31.0074 27.15 33.2203 26.2334 34.8518 24.6018C36.4834 22.9703 37.4 20.7574 37.4 18.45C37.4 10.1161 29.7289 3.6 20.5 3.6C16.0178 3.6 11.7193 5.38053 8.5499 8.5499C5.38053 11.7193 3.6 16.0178 3.6 20.5C3.6 24.9822 5.38053 29.2807 8.5499 32.4501C11.7193 35.6195 16.0178 37.4 20.5 37.4C20.9211 37.4 21.3109 37.2574 21.5967 36.9717C21.8824 36.6859 22.025 36.2961 22.025 35.875C22.025 35.5793 21.9489 35.3577 21.8867 35.2024C21.8714 35.164 21.8603 35.1376 21.8516 35.1166C21.8399 35.0885 21.8322 35.0701 21.8235 35.0455C21.822 35.0413 21.8209 35.0378 21.82 35.0351ZM9.225 16.9C10.5889 16.9 11.8 18.1111 11.8 19.475C11.8 20.8389 10.5889 22.05 9.225 22.05C7.86114 22.05 6.65 20.8389 6.65 19.475C6.65 18.1111 7.86114 16.9 9.225 16.9ZM15.375 8.7C16.7389 8.7 17.95 9.91114 17.95 11.275C17.95 12.6389 16.7389 13.85 15.375 13.85C14.0111 13.85 12.8 12.6389 12.8 11.275C12.8 9.91114 14.0111 8.7 15.375 8.7ZM25.625 8.7C26.9889 8.7 28.2 9.91114 28.2 11.275C28.2 12.6389 26.9889 13.85 25.625 13.85C24.2611 13.85 23.05 12.6389 23.05 11.275C23.05 9.91114 24.2611 8.7 25.625 8.7ZM31.775 16.9C33.1389 16.9 34.35 18.1111 34.35 19.475C34.35 20.8389 33.1389 22.05 31.775 22.05C30.4111 22.05 29.2 20.8389 29.2 19.475C29.2 18.1111 30.4111 16.9 31.775 16.9Z" fill="#F18F01" stroke="#F18F01"/>
</svg>
