<svg width="42" height="42" viewBox="0 0 42 42" fill="none" xmlns="http://www.w3.org/2000/svg">
<g clip-path="url(#clip0_111_366)">
<path d="M29.9393 17.2729V12.3444C29.9888 9.84783 29.0473 7.43327 27.3208 5.62913C25.5944 3.825 23.2236 2.77819 20.7272 2.71777C18.2308 2.77819 15.86 3.825 14.1336 5.62913C12.4071 7.43327 11.4656 9.84783 11.5151 12.3444V17.2729H8.06055V36.8487C8.06055 37.4595 8.30319 38.0453 8.73509 38.4772C9.16699 38.9091 9.75278 39.1517 10.3636 39.1517H31.0908C31.7017 39.1517 32.2874 38.9091 32.7193 38.4772C33.1512 38.0453 33.3939 37.4595 33.3939 36.8487V17.2729H29.9393ZM21.8787 29.0529V32.2426H19.5757V28.9493C19.0151 28.6608 18.5699 28.1893 18.3142 27.6131C18.0584 27.0368 18.0073 26.3904 18.1694 25.7812C18.3316 25.1719 18.6972 24.6364 19.2055 24.2635C19.7139 23.8906 20.3345 23.7027 20.9644 23.731C21.5942 23.7594 22.1954 24.0022 22.6683 24.4193C23.1411 24.8363 23.4571 25.4025 23.5639 26.0239C23.6706 26.6453 23.5617 27.2845 23.2552 27.8354C22.9487 28.3864 22.463 28.816 21.8787 29.0529ZM27.6363 17.2729H13.8181V12.3444C13.7685 10.4585 14.4673 8.62964 15.7619 7.25736C17.0565 5.88509 18.8416 5.08101 20.7272 5.0208C22.6128 5.08101 24.3979 5.88509 25.6925 7.25736C26.9871 8.62964 27.686 10.4585 27.6363 12.3444V17.2729Z" fill="white"/>
</g>
<defs>
<clipPath id="clip0_111_366">
<rect width="41.4545" height="41.4545" fill="white"/>
</clipPath>
</defs>
</svg>
