<svg width="31" height="41" viewBox="0 0 31 41" fill="none" xmlns="http://www.w3.org/2000/svg">
<path d="M24.6875 13.6667V14.1667H25.1875H27.125C28.9765 14.1667 30.5 15.6963 30.5 17.5714V37.0952C30.5 38.9703 28.9765 40.5 27.125 40.5H3.875C2.02349 40.5 0.5 38.9703 0.5 37.0952V17.5714C0.5 15.6963 2.02349 14.1667 3.875 14.1667H5.8125H6.3125V13.6667V9.7619C6.3125 4.64586 10.4322 0.5 15.5 0.5C20.5678 0.5 24.6875 4.64586 24.6875 9.7619V13.6667ZM21.5063 14.1667H22.0063V13.6667V9.7619C22.0063 6.1508 19.0929 3.20952 15.5 3.20952C11.9071 3.20952 8.99375 6.1508 8.99375 9.7619V13.6667V14.1667H9.49375H21.5063ZM11.125 27.3333C11.125 29.7535 13.089 31.7381 15.5 31.7381C17.911 31.7381 19.875 29.7535 19.875 27.3333C19.875 24.9132 17.911 22.9286 15.5 22.9286C13.089 22.9286 11.125 24.9132 11.125 27.3333Z" fill="#F18F01" stroke="#F18F01"/>
</svg>
