<svg width="69" height="69" viewBox="0 0 69 69" fill="none" xmlns="http://www.w3.org/2000/svg">
<g clip-path="url(#clip0_440_40)">
<path d="M22.9998 23.0017V20.5608C22.9974 18.0134 23.8409 15.5374 25.3979 13.5212C26.9549 11.505 29.1372 10.0629 31.6024 9.42111C34.0676 8.77932 36.6761 8.9742 39.0186 9.97517C41.3611 10.9761 43.3049 12.7265 44.545 14.9517L52.0718 10.7398C49.8996 6.84911 46.4977 3.78932 42.3993 2.04024C38.301 0.291152 33.7381 -0.0483094 29.4261 1.07508C25.114 2.19847 21.2968 4.72118 18.5728 8.24763C15.8489 11.7741 14.3724 16.1048 14.3748 20.5608V23.0017H5.74976V60.3767C5.74976 62.6642 6.65846 64.858 8.27596 66.4755C9.89346 68.093 12.0873 69.0017 14.3748 69.0017H54.6248C56.9122 69.0017 59.1061 68.093 60.7236 66.4755C62.3411 64.858 63.2498 62.6642 63.2498 60.3767V23.0017H22.9998ZM14.3748 60.3767V31.6267H54.6248V60.3767H14.3748Z" fill="#F18F01"/>
<path d="M40.2502 40.2518H28.7502V48.8768H40.2502V40.2518Z" fill="#F18F01"/>
</g>
<defs>
<clipPath id="clip0_440_40">
<rect width="69" height="69" fill="white"/>
</clipPath>
</defs>
</svg>
