<svg width="561" height="618" viewBox="0 0 561 618" fill="none" xmlns="http://www.w3.org/2000/svg">
<path d="M560.466 384.063C558.449 439.496 538.131 495.967 500.208 535.413C465.413 569.559 420.64 597.877 375.673 609.504C343.838 617.808 310.336 617.711 277.816 616.05C246.873 614.694 217.016 611.773 189.006 603.704C101.27 578.943 23.1624 516.548 -36.785 446.222C-88.7445 387.371 -131.708 308.187 -119.364 223.48C-107.538 132.103 -42.0714 54.4966 37.1475 22.7594C78.8444 6.12264 123.902 1.91499 167.964 1.25062C205.086 0.641625 236.352 -3.09542 272.555 7.32679C325.497 22.7456 374.29 51.5208 415.819 90.4692C446.206 118.289 475.236 148.338 498.153 183.563C535.055 241.501 561.357 313.017 560.479 383.454V384.063H560.466ZM439.873 409.71C458.589 337.682 418.559 259.84 375.751 205.017C333.446 153.902 283.193 131.397 220.454 125.639C132.187 116.49 3.29626 107.438 -31.7183 217.833C-47.4483 271.439 -22.4896 320.824 10.78 361.627C45.7041 404.09 87.388 442.651 134.384 468.921C198.868 505.226 277.894 518.486 348.297 495.178C389.18 481.876 427.827 456.298 439.692 410.36L439.86 409.724L439.873 409.71ZM324.825 425.115C325.458 480.714 263.521 422.637 239.493 411.288C232.914 407.772 225.391 404.741 218.321 403.675C199.179 400.533 180.825 409.862 163.363 417.378C148.835 423.246 128.917 434.333 116.703 423.675C96.9269 402.61 124.522 342.374 127.56 314.291C133.945 281.391 126.875 246.055 126.552 213.529C126.487 190.207 134.695 180.449 158.193 184.878C172.036 186.927 187.766 191.466 202.229 192.56C223.814 194.968 244.831 186.954 265.266 181.21C319.733 164.67 302.167 220.297 293.572 254.304C287.394 278.277 283.154 301.529 288.686 324.907C295.679 358.443 321.206 390.706 324.773 424.561L324.812 425.115H324.825ZM314.071 613.739C315.118 610.694 319.125 611.621 317.716 615.206C316.475 618.237 313.322 617.324 313.865 614.431L314.071 613.739ZM511.608 212.684C512.293 210.387 516.933 212.56 516.442 214.719C515.55 217.21 511.582 215.411 511.531 213.21L511.608 212.684Z" fill="#0E7A8C" fill-opacity="0.14"/>
</svg>
